<svg height="511pt" viewBox="0 -29 511.99927 511" width="511pt" xmlns="http://www.w3.org/2000/svg"><path d="m492.066406 422.671875h-474.660156c-4.273438 0-7.734375-3.464844-7.734375-7.738281 0-4.273438 3.460937-7.734375 7.734375-7.734375h474.660156c4.273438 0 7.738282 3.460937 7.738282 7.734375 0 4.273437-3.464844 7.738281-7.738282 7.738281zm0 0" fill="#b4b4b4"/><path d="m96.027344 372.269531h-41.277344c-4.269531 0-7.734375 3.464844-7.734375 7.734375v65.734375c0 4.273438 3.464844 7.734375 7.734375 7.734375h41.277344c4.269531 0 7.734375-3.460937 7.734375-7.734375v-65.734375c0-4.269531-3.464844-7.734375-7.734375-7.734375zm0 0" fill="#4693d3"/><path d="m445.953125 372.269531h-41.273437c-4.273438 0-7.738282 3.464844-7.738282 7.734375v65.734375c0 4.273438 3.464844 7.734375 7.738282 7.734375h41.273437c4.273437 0 7.738281-3.460937 7.738281-7.734375v-65.734375c0-4.269531-3.464844-7.734375-7.738281-7.734375zm0 0" fill="#4693d3"/><path d="m96.027344 372.269531h-30.945313c4.273438 0 7.734375 3.464844 7.734375 7.734375v65.734375c0 4.273438-3.460937 7.734375-7.734375 7.734375h30.945313c4.269531 0 7.734375-3.460937 7.734375-7.734375v-65.734375c0-4.269531-3.464844-7.734375-7.734375-7.734375zm0 0" fill="#236dd0"/><path d="m445.953125 372.269531h-30.945313c4.273438 0 7.738282 3.464844 7.738282 7.734375v65.734375c0 4.273438-3.464844 7.734375-7.738282 7.734375h30.945313c4.273437 0 7.738281-3.460937 7.738281-7.734375v-65.734375c0-4.269531-3.464844-7.734375-7.738281-7.734375zm0 0" fill="#236dd0"/><path d="m308.195312 52.199219c0-28.507813-23.191406-51.699219-51.699218-51.699219-28.507813 0-51.699219 23.191406-51.699219 51.699219 0 4.269531 3.464844 7.734375 7.738281 7.734375 4.273438 0 7.734375-3.464844 7.734375-7.734375 0-19.976563 16.25-36.226563 36.226563-36.226563 19.976562 0 36.226562 16.25 36.226562 36.226563 0 19.972656-16.25 36.222656-36.226562 36.222656-4.273438 0-7.734375 3.464844-7.734375 7.738281v44.386719c0 4.273437 3.460937 7.734375 7.734375 7.734375 4.273437 0 7.734375-3.460938 7.734375-7.734375v-37.234375c24.851562-3.742188 43.964843-25.238281 43.964843-51.113281zm0 0" fill="#e5dcde"/><path d="m502.007812 331.539062-228.578124-188.855468c-10.117188-8.359375-24.742188-8.359375-34.863282 0l-228.574218 188.855468c-19.777344 16.34375-8.226563 48.464844 17.429687 48.464844h457.15625c25.652344 0 37.207031-32.125 17.429687-48.464844zm-435.960937 7.207032 189.953125-156.945313 189.953125 156.945313zm0 0" fill="#dc8839"/><path d="m502.007812 331.539062-228.578124-188.855468c-9.480469-7.835938-22.921876-8.328125-32.902344-1.476563.667968.457031 1.324218.949219 1.960937 1.476563l228.574219 188.855468c19.777344 16.34375 8.222656 48.464844-17.429688 48.464844h30.945313c25.652344 0 37.207031-32.125 17.429687-48.464844zm0 0" fill="#ac5a28"/></svg>