<svg height="512pt" viewBox="0 -53 512.001 512" width="512pt" xmlns="http://www.w3.org/2000/svg"><path d="m479.878906 266.066406-131.671875-69.925781-45.695312-68.941406h-34.296875v-24.222657c21.695312-6.480468 37.558594-26.621093 37.558594-50.394531 0-28.996093-23.589844-52.582031-52.582032-52.582031-28.992187 0-52.582031 23.585938-52.582031 52.582031h30.046875c0-12.425781 10.109375-22.535156 22.535156-22.535156 12.425782 0 22.535156 10.109375 22.535156 22.535156s-10.109374 22.535157-22.535156 22.535157h-15.023437v52.082031h-28.675781l-45.699219 68.941406-131.671875 69.925781c-19.8125 10.519532-32.121094 30.992188-32.121094 53.425782v50.148437h24.636719l12.078125-6.339844v42.324219h437.785156v-42.738281l12.863281 6.753906h24.636719v-50.148437c0-22.433594-12.308594-42.90625-32.121094-53.425782zm-35.425781 109.511719h-377.691406v-28.050781l189.238281-99.332032 188.453125 98.921876zm0 0"/></svg>